# xmcd
#
# Track frame offsets: 
#        150
#        19001
#        35603
#        47346
#        64445
#        80953
#        99430
#        115760
#        137520
#        161595
#
# Disc length: 2354 seconds
#
# Revision: 0
# Processed by: cddbd v1.5.1PL2 Copyright (c) Steve Scherf et al.
# Submitted via: ExactAudioCopy v0.95b3
#
DISCID=7f09300a
DTITLE=FRIENDS IN NO PLACES - HARD TO BE A MAN
DYEAR=2005
DGENRE=Country
TTITLE0=Glory Through The Glass
TTITLE1=Just Met An Angel
TTITLE2=Hard To Be A Man
TTITLE3=Don't Ring This Ringer
TTITLE4=Me and You
TTITLE5=Longreach Sky
TTITLE6=Seems Like A Lifetime Away
TTITLE7=I'm Gonna Be Somebody
TTITLE8=Blind Man
TTITLE9=Stockings and Lace
EXTD=
EXTT0=
EXTT1=
EXTT2=
EXTT3=
EXTT4=
EXTT5=
EXTT6=
EXTT7=
EXTT8=
EXTT9=
PLAYORDER=
